HIERARCHY
ROOT Hips
{
	OFFSET	0.00	0.00	0.00
	CHANNELS 6 Xposition Yposition Zposition Zrotation Xrotation Yrotation
	JOINT LeftUpLeg
	{
		OFFSET	 0.126116	-0.014019	-0.065224
		CHANNELS 3 Zrotation Xrotation Yrotation
		JOINT LeftLeg
		{
			OFFSET	 0.000000	 0.000000	 0.569914
			CHANNELS 3 Zrotation Xrotation Yrotation
			JOINT LeftFoot
			{
				OFFSET	 0.000000	 0.000000	 0.544423
				CHANNELS 3 Zrotation Xrotation Yrotation
				JOINT LeftToeBase
				{
					OFFSET	 0.000000	 0.000000	 0.207117
					CHANNELS 3 Zrotation Xrotation Yrotation
					End Site
					{
						OFFSET	 0.000000	 0.000000	 0.207117
					}
				}
			}
		}
	}
	JOINT RightUpLeg
	{
		OFFSET	-0.124023	-0.008373	-0.065224
		CHANNELS 3 Zrotation Xrotation Yrotation
		JOINT RightLeg
		{
			OFFSET	 0.000000	 0.000000	 0.570047
			CHANNELS 3 Zrotation Xrotation Yrotation
			JOINT RightFoot
			{
				OFFSET	 0.000000	 0.000000	 0.544354
				CHANNELS 3 Zrotation Xrotation Yrotation
				JOINT RightToeBase
				{
					OFFSET	 0.000000	 0.000000	 0.207540
					CHANNELS 3 Zrotation Xrotation Yrotation
					End Site
					{
						OFFSET	 0.000000	 0.000000	 0.207540
					}
				}
			}
		}
	}
	JOINT Spine
	{
		OFFSET	 0.000184	-0.007763	 0.117403
		CHANNELS 3 Zrotation Xrotation Yrotation
		JOINT Spine1
		{
			OFFSET	 0.000000	 0.000000	 0.137269
			CHANNELS 3 Zrotation Xrotation Yrotation
			JOINT Spine2
			{
				OFFSET	 0.000000	 0.000000	 0.156879
				CHANNELS 3 Zrotation Xrotation Yrotation
				JOINT LeftShoulder
				{
					OFFSET	 0.080501	-0.002496	 0.160144
					CHANNELS 3 Zrotation Xrotation Yrotation
					JOINT LeftArm
					{
						OFFSET	 0.000000	 0.000000	 0.164363
						CHANNELS 3 Zrotation Xrotation Yrotation
						JOINT LeftForeArm
						{
							OFFSET	 0.000000	 0.000000	 0.364576
							CHANNELS 3 Zrotation Xrotation Yrotation
							JOINT LeftHand
							{
								OFFSET	 0.000000	 0.000000	 0.360812
								CHANNELS 3 Zrotation Xrotation Yrotation
								JOINT LeftHandIndex1
								{
									OFFSET	 0.000000	 0.000000	 0.086006
									CHANNELS 3 Zrotation Xrotation Yrotation
									JOINT LeftHandIndex2
									{
										OFFSET	 0.000000	 0.000000	 0.047236
										CHANNELS 3 Zrotation Xrotation Yrotation
										JOINT LeftHandIndex3
										{
											OFFSET	-0.004284	-0.000551	 0.038166
											CHANNELS 3 Zrotation Xrotation Yrotation
											End Site
											{
												OFFSET	-0.004284	-0.000551	 0.038166
											}
										}
									}
								}
							}
						}
					}
				}
				JOINT Neck
				{
					OFFSET	 0.000000	 0.000000	 0.176489
					CHANNELS 3 Zrotation Xrotation Yrotation
					JOINT Head
					{
						OFFSET	 0.000000	-0.001747	 0.077940
						CHANNELS 3 Zrotation Xrotation Yrotation
						End Site
						{
							OFFSET	 0.000000	-0.001747	 0.077940
						}
					}
				}
				JOINT RightShoulder
				{
					OFFSET	-0.080363	 0.000306	 0.159706
					CHANNELS 3 Zrotation Xrotation Yrotation
					JOINT RightArm
					{
						OFFSET	 0.000000	 0.000000	 0.164196
						CHANNELS 3 Zrotation Xrotation Yrotation
						JOINT RightForeArm
						{
							OFFSET	 0.000000	 0.000000	 0.365611
							CHANNELS 3 Zrotation Xrotation Yrotation
							JOINT RightHand
							{
								OFFSET	 0.000000	 0.000000	 0.360648
								CHANNELS 3 Zrotation Xrotation Yrotation
								JOINT RightHandIndex1
								{
									OFFSET	 0.000000	 0.000000	 0.069977
									CHANNELS 3 Zrotation Xrotation Yrotation
									JOINT RightHandIndex2
									{
										OFFSET	 0.000000	 0.000000	 0.052305
										CHANNELS 3 Zrotation Xrotation Yrotation
										JOINT RightHandIndex3
										{
											OFFSET	 0.009002	-0.000782	 0.042196
											CHANNELS 3 Zrotation Xrotation Yrotation
											End Site
											{
												OFFSET	 0.009002	-0.000782	 0.042196
											}
										}
									}
								}
							}
						}
					}
				}
			}
		}
	}
}
MOTION
Frames:    10
Frame Time: 0.03333334
-0.040099	 0.262064	 0.996129	 0.413328	 34.702110	-6.209804	-29.635250	-86.052650	 150.974200	 8.819351	-75.943570	 8.963899	-54.265120	 83.128390	 58.895190	-2.385832	 28.452790	-0.000001	 91.577480	-76.896940	-97.235560	-20.876690	-77.971150	-15.401590	 73.264920	 79.780400	-66.368160	 2.384659	 28.388700	-0.000001	-3.284919	 15.197560	 2.154715	-3.366730	 21.997220	 5.136681	 2.684805	-0.763589	 0.978081	-99.187580	 68.204910	 156.709400	 11.813060	-5.238606	-38.482410	-4.344758	 12.030570	-38.161670	-30.305770	-36.145250	-21.051890	-2.027600	 6.559038	 9.033609	-5.188889	 0.308190	 3.541030	-5.234859	 0.342567	 0.430617	 0.452221	 18.101810	-6.253592	 5.065389	-27.259570	 1.752988	 97.469070	 64.661060	-159.047500	-1.546917	 3.247623	 45.178300	-6.877313	 0.463756	 30.919080	 12.865790	-35.403610	 15.714970	 1.803333	 3.979147	-15.098590	 4.898592	 3.004813	-9.310344	 5.224449	 0.395017	 2.014677
-0.039631	 0.261894	 1.001835	 0.173623	 34.203800	-5.868195	-26.899850	-84.992770	 153.723300	 8.031293	-75.237920	 8.172822	-53.568460	 82.979290	 58.172350	-2.385832	 28.452790	-0.000001	 86.887520	-76.985100	-102.049500	-20.051450	-77.133870	-14.547020	 71.633230	 79.782310	-64.647140	 2.384659	 28.388700	-0.000001	-3.379314	 15.199820	 2.146868	-3.334891	 22.344280	 5.146370	 2.989231	-1.322208	 0.765618	-99.075660	 68.190960	 157.073600	 11.653430	-4.339057	-38.826200	-4.180424	 12.009360	-38.437330	-30.553940	-35.959660	-21.240440	-2.027600	 6.559038	 9.033609	-5.188889	 0.308190	 3.541030	-5.234859	 0.342567	 0.430617	 0.126236	 16.337730	-5.415987	 5.059144	-25.580310	 1.281808	 97.377340	 64.605670	-159.329200	-1.792394	 3.213034	 45.194820	-6.593050	 0.642106	 31.236140	 13.187480	-35.230110	 16.406550	 1.803333	 3.979147	-15.098590	 4.898592	 3.004813	-9.310344	 5.224449	 0.395017	 2.014677
-0.039202	 0.261694	 1.008209	 0.031698	 33.668990	-5.581917	-25.115590	-83.818570	 155.634500	 7.441306	-74.390870	 7.571472	-52.200140	 82.766600	 56.676110	-2.385832	 28.452790	-0.000001	 81.672850	-76.965190	-107.303100	-19.265930	-76.214130	-13.728520	 69.596900	 79.764500	-62.543730	 2.384659	 28.388700	-0.000001	-3.466916	 15.217920	 2.149411	-3.264697	 22.727800	 5.089324	 3.222722	-1.944565	 0.575392	-98.836740	 68.413470	 157.476200	 11.534460	-3.141054	-39.411790	-3.991745	 11.945480	-38.667530	-30.892580	-35.816320	-21.598390	-2.027600	 6.559038	 9.033609	-5.188889	 0.308190	 3.541030	-5.234859	 0.342567	 0.430617	-0.163395	 14.131930	-4.807503	 5.082376	-23.446490	 0.918464	 97.250890	 64.413310	-159.828900	-2.146394	 2.963049	 45.380360	-6.356155	 0.797030	 31.596120	 13.238180	-34.853210	 17.087080	 1.803333	 3.979147	-15.098590	 4.898592	 3.004813	-9.310344	 5.224449	 0.395017	 2.014677
-0.038642	 0.261494	 1.015019	-0.069650	 33.103390	-5.323996	-23.611670	-82.576620	 157.309200	 6.914169	-73.456690	 7.030356	-50.587010	 82.527950	 54.923060	-2.385832	 28.452790	-0.000001	 76.173840	-76.798000	-112.803600	-18.531960	-75.231900	-12.958660	 67.460660	 79.726070	-60.328400	 2.384659	 28.388700	-0.000001	-3.544954	 15.229520	 2.143280	-3.177773	 23.051760	 5.005674	 3.406991	-2.542295	 0.402972	-98.577330	 68.679960	 157.884400	 11.513460	-1.823817	-39.985370	-3.796723	 11.876740	-38.903620	-31.231660	-35.674460	-21.986800	-2.027600	 6.559038	 9.033609	-5.188889	 0.308190	 3.541030	-5.234859	 0.342567	 0.430617	-0.424252	 11.857360	-4.260826	 5.098145	-21.243840	 0.567529	 97.116210	 64.196290	-160.365500	-2.573056	 2.711312	 45.521250	-6.133689	 0.949982	 32.035490	 13.231600	-34.411870	 17.745760	 1.803333	 3.979147	-15.098590	 4.898592	 3.004813	-9.310344	 5.224449	 0.395017	 2.014677
-0.037724	 0.261400	 1.023639	-0.180456	 32.342470	-5.009533	-21.975900	-80.975240	 159.163400	 6.337802	-72.253400	 6.435699	-48.538480	 82.240360	 52.700220	-2.385832	 28.452790	-0.000001	 69.294690	-76.374150	-119.675800	-17.773130	-73.976920	-12.151170	 65.044620	 79.647060	-57.796200	 2.384659	 28.388700	-0.000001	-3.661070	 15.242420	 2.122858	-3.097875	 23.380760	 4.904724	 3.576018	-3.302122	 0.209739	-98.162290	 69.208310	 158.394000	 11.756170	 0.025234	-40.708560	-3.556315	 11.763430	-39.133870	-31.705830	-35.488420	-22.629220	-2.027600	 6.559038	 9.033609	-5.188889	 0.308190	 3.541030	-5.234859	 0.342567	 0.430617	-0.691186	 8.824018	-3.583488	 5.046039	-18.339890	 0.032883	 96.931730	 64.133290	-160.887400	-3.212855	 2.824920	 45.512250	-6.046257	 1.029221	 32.658420	 13.114050	-33.828850	 18.357180	 1.803333	 3.979147	-15.098590	 4.898592	 3.004813	-9.310344	 5.224449	 0.395017	 2.014677
-0.036847	 0.261477	 1.030595	-0.260175	 31.724440	-4.773115	-20.815840	-79.690020	 160.490800	 5.933946	-71.256610	 6.016243	-46.834520	 82.007970	 50.856620	-2.385833	 28.452760	 0.000004	 64.106480	-75.873410	-124.850900	-17.254850	-72.946040	-11.590870	 63.245590	 79.556450	-55.896930	 2.384659	 28.388700	-0.000001	-3.768309	 15.247860	 2.103049	-3.062810	 23.584270	 4.833548	 3.665875	-3.896445	 0.075208	-97.776880	 69.756610	 158.781800	 12.135940	 1.570402	-41.260430	-3.371749	 11.661110	-39.277790	-32.102810	-35.342060	-23.234100	-2.027600	 6.559038	 9.033609	-5.188889	 0.308190	 3.541030	-5.234859	 0.342567	 0.430617	-0.849846	 6.365901	-3.066619	 4.965024	-16.008400	-0.437695	 96.781920	 64.238340	-161.179600	-3.755607	 3.212798	 45.378160	-6.116289	 1.002803	 33.144630	 12.942650	-33.371610	 18.677230	 1.803333	 3.979147	-15.098590	 4.898592	 3.004813	-9.310344	 5.224449	 0.395017	 2.014677
-0.035615	 0.261549	 1.039344	-0.329726	 30.979180	-4.517039	-19.543270	-78.105510	 161.981800	 5.483563	-69.967070	 5.545418	-44.637930	 81.697330	 48.502680	-2.385833	 28.452760	 0.000004	 58.263180	-75.076680	-130.652900	-16.659690	-71.632010	-10.941350	 61.034770	 79.418110	-53.546500	 2.384659	 28.388700	-0.000001	-3.885256	 15.219480	 2.068273	-3.018909	 23.753760	 4.738035	 3.732015	-4.548873	-0.070072	-97.333460	 70.390600	 159.227100	 12.707060	 3.413991	-41.822420	-3.150498	 11.552890	-39.488760	-32.536330	-35.167190	-23.929290	-2.027600	 6.559038	 9.033609	-5.188889	 0.308190	 3.541030	-5.234859	 0.342567	 0.430617	-1.004434	 3.535316	-2.482695	 4.871826	-13.324200	-0.977769	 96.610590	 64.359560	-161.520100	-4.443667	 3.705793	 45.118920	-6.198887	 0.972533	 33.794280	 12.734660	-32.826070	 19.038600	 1.803333	 3.979147	-15.098590	 4.898592	 3.004813	-9.310344	 5.224449	 0.395017	 2.014677
-0.034081	 0.261982	 1.049670	-0.389314	 30.053950	-4.181376	-18.408880	-76.195230	 163.349900	 5.225987	-68.405180	 5.248775	-42.187740	 81.355550	 45.787160	-2.385833	 28.452760	 0.000004	 51.936210	-73.958480	-136.921800	-16.190530	-70.022070	-10.394580	 58.682380	 79.220320	-50.965330	 2.384659	 28.388700	-0.000001	-4.011885	 15.267770	 2.005527	-2.951996	 23.982640	 4.545687	 3.790928	-5.366391	-0.149583	-96.445530	 71.859540	 159.684900	 13.546840	 6.046952	-43.079960	-2.896139	 11.365940	-39.584820	-33.113200	-35.019660	-24.668320	-2.027600	 6.559038	 9.033609	-5.188889	 0.308190	 3.541030	-5.234859	 0.342567	 0.430617	-1.152973	 0.108551	-2.308906	 4.863945	-10.028170	-1.235230	 96.135430	 65.252430	-162.006800	-5.233345	 5.161943	 45.293640	-6.423567	 0.843879	 34.490360	 12.690310	-32.646390	 19.421480	 1.803333	 3.979147	-15.098590	 4.898592	 3.004813	-9.310344	 5.224449	 0.395017	 2.014677
-0.032585	 0.262124	 1.059155	-0.409953	 29.211640	-3.896782	-17.523820	-74.429860	 164.458500	 5.024344	-66.941450	 5.008492	-39.987050	 81.028400	 43.362590	-2.385833	 28.452760	 0.000004	 46.893360	-72.759800	-141.896300	-15.811770	-68.518310	-9.939923	 56.554050	 79.020940	-48.593210	 2.384659	 28.388700	-0.000001	-4.105463	 15.273570	 1.934309	-2.881251	 24.130470	 4.362740	 3.803260	-6.064635	-0.209430	-95.611830	 73.196260	 160.050800	 14.385640	 8.418528	-44.178650	-2.658779	 11.212820	-39.729350	-33.598130	-34.890250	-25.318490	-2.027600	 6.559038	 9.033609	-5.188889	 0.308190	 3.541030	-5.234859	 0.342567	 0.430617	-1.276620	-2.922308	-2.188002	 4.841977	-7.110478	-1.449213	 95.704490	 66.078040	-162.444100	-5.982841	 6.520773	 45.412890	-6.627772	 0.723603	 35.250410	 12.634820	-32.503880	 19.750000	 1.803333	 3.979147	-15.098590	 4.898592	 3.004813	-9.310344	 5.224449	 0.395017	 2.014677
-0.030915	 0.261822	 1.069110	-0.363433	 28.308980	-3.606737	-16.827540	-72.529870	 165.431300	 4.903749	-65.383050	 4.839155	-37.637590	 80.680610	 40.768660	-2.385833	 28.452750	 0.000004	 42.255360	-71.328730	-146.452100	-15.003200	-66.953380	-9.083878	 54.518550	 78.813060	-46.453190	 2.384659	 28.388700	-0.000001	-4.197168	 15.251520	 1.824753	-2.813354	 24.274260	 4.130444	 3.785954	-6.855992	-0.227776	-94.716500	 74.558930	 160.425900	 15.453740	 10.656010	-45.306420	-2.381724	 11.061020	-39.970340	-33.921630	-34.722600	-25.969900	-2.027600	 6.559038	 9.033609	-5.188889	 0.308190	 3.541030	-5.234859	 0.342567	 0.430617	-1.398543	-6.239619	-2.236178	 4.809228	-3.959729	-1.590043	 95.247310	 66.969380	-162.900400	-6.888633	 7.962165	 45.516310	-6.817482	 0.610644	 36.208800	 12.527810	-32.358950	 19.967670	 1.803333	 3.979147	-15.098590	 4.898592	 3.004813	-9.310344	 5.224449	 0.395017	 2.014677
